<svg width="220" height="36" viewBox="0 0 220 36" fill="none" xmlns="http://www.w3.org/2000/svg">
<g clip-path="url(#clip0_332_1597)">
<path d="M46.6982 12.1689H51.4633L54.2491 22.6521H54.3957L57.0348 12.1689H61.9465L64.5856 22.6521H64.7322L67.518 12.1689H72.283L67.1514 28.0037H62.6063L59.5273 16.8607L56.4483 28.077H51.8299L46.6982 12.1689Z" fill="#003333"/>
<path d="M84.9646 13.8553C86.3574 15.1749 87.0905 16.9343 87.0905 19.1336C87.0905 19.8666 87.0172 20.5997 86.7973 21.4061H75.9476C76.0942 23.6787 78.1468 24.7783 80.7126 24.7783C82.6187 24.7783 84.7446 24.0453 86.1375 22.9456V26.831C84.6713 27.784 82.5454 28.3705 80.3461 28.3705C74.5547 28.3705 71.3291 24.6317 71.3291 20.0866C71.3291 15.9813 74.1881 11.876 79.4664 11.876C81.739 11.876 83.5717 12.5358 84.9646 13.8553ZM82.7653 18.5471C83.0585 16.7877 81.8856 15.1749 79.6863 15.1749C77.707 15.1749 76.2408 16.4944 76.0942 18.5471H82.7653Z" fill="#003333"/>
<path d="M88.1908 28.0772V12.1692C88.1908 10.5564 88.0441 8.65035 87.8242 6.01123H92.9558V23.1655C92.9558 24.705 93.1025 26.7576 93.3224 28.0772H88.1908Z" fill="#003333"/>
<path d="M95.0814 28.0772V12.1692C95.0814 10.5564 94.9348 8.65035 94.7148 6.01123H99.8465V23.1655C99.8465 24.705 99.9931 26.7576 100.213 28.0772H95.0814Z" fill="#003333"/>
<path d="M110.696 25.6581C109.45 27.5641 107.837 28.3705 105.858 28.3705C102.926 28.3705 100.873 26.5378 100.873 23.8987C100.873 21.2596 102.999 19.7934 107.251 19.0603C109.743 18.6938 110.77 18.1073 110.77 16.9344C110.77 15.8347 109.89 15.1749 108.277 15.1749C106.225 15.1749 104.025 16.2746 102.046 18.034V14.002C103.805 12.6824 106.298 11.8027 108.79 11.8027C112.896 11.8027 115.535 14.0753 115.535 17.6674V23.0923C115.535 24.9983 115.755 26.7578 116.048 28.004H111.356L111.063 25.6581H110.696ZM110.916 20.0866C110.183 20.893 109.304 21.3329 107.911 21.6994C106.298 22.066 105.565 22.6525 105.565 23.5322C105.565 24.4852 106.371 25.145 107.617 25.145C109.377 25.145 110.916 23.7521 110.916 21.4795V20.0866Z" fill="#003333"/>
<path d="M122.426 25.2916V28.0041C122.426 28.7372 122.426 29.5436 122.573 30.5699C122.646 31.5962 122.72 32.4026 122.866 32.9891H117.735V16.8611C117.735 15.6149 117.588 13.7088 117.368 12.096H122.5V14.8085H122.866C123.819 12.8291 125.872 11.7295 128.145 11.7295C131.883 11.7295 134.889 14.8818 134.889 20.0134C134.889 25.0717 131.957 28.2973 128.145 28.2973C125.799 28.2973 123.819 27.1977 122.866 25.2183H122.426V25.2916ZM122.28 20.16C122.28 22.8724 123.893 24.6319 126.312 24.6319C128.658 24.6319 130.051 23.0191 130.051 20.16C130.051 17.301 128.658 15.6149 126.312 15.6149C123.819 15.6149 122.28 17.4476 122.28 20.16Z" fill="#003333"/>
<path d="M144.639 25.6581C143.393 27.5641 141.78 28.3705 139.8 28.3705C136.868 28.3705 134.815 26.5378 134.815 23.8987C134.815 21.2596 136.941 19.7934 141.193 19.0603C143.686 18.6938 144.712 18.1073 144.712 16.9344C144.712 15.8347 143.832 15.1749 142.22 15.1749C140.167 15.1749 137.968 16.2746 135.988 18.034V14.002C137.748 12.6824 140.24 11.8027 142.733 11.8027C146.838 11.8027 149.477 14.0753 149.477 17.6674V23.0923C149.477 24.9983 149.697 26.7578 149.99 28.004H145.299L145.005 25.6581H144.639ZM144.785 20.0866C144.052 20.893 143.173 21.3329 141.78 21.6994C140.167 22.066 139.434 22.6525 139.434 23.5322C139.434 24.4852 140.24 25.145 141.487 25.145C143.246 25.145 144.785 23.7521 144.785 21.4795V20.0866Z" fill="#003333"/>
<path d="M151.603 28.0776V17.008C151.603 15.6884 151.456 14.0023 151.236 12.2429H155.855V15.9083H156.221C156.808 13.3425 158.567 12.0229 160.693 12.0229C161.426 12.0229 162.233 12.1696 162.892 12.5361V17.2279C161.939 16.6414 160.986 16.3482 160.107 16.3482C157.834 16.3482 156.441 17.961 156.441 20.82V23.2392C156.441 24.9253 156.515 26.3915 156.808 28.1509H151.603V28.0776Z" fill="#003333"/>
<path d="M174.328 27.4174C173.229 28.0772 171.982 28.4438 170.59 28.4438C167.217 28.4438 165.018 26.3178 165.018 22.9456V15.8346H162.379V12.7556H163.185C165.605 12.7556 166.631 11.3628 166.924 7.62402H169.636V12.2425H174.108V15.8346H169.636V22.3591C169.636 23.8986 170.37 24.6317 171.689 24.6317C172.496 24.6317 173.302 24.2651 174.182 23.5321V27.4174H174.328Z" fill="#003333"/>
<path d="M179.534 12.1693V14.8084H179.9C180.633 13.1956 182.393 11.8027 184.958 11.8027C186.645 11.8027 188.037 12.3159 189.137 13.4155C190.237 14.5152 190.75 15.9813 190.75 17.7408V23.0923C190.75 24.8517 190.896 26.7578 191.116 28.004H186.058V18.8404C186.058 16.861 184.958 15.7614 183.126 15.7614C181.293 15.7614 179.973 17.0077 179.973 19.0603V28.0773H175.208V17.0077C175.208 16.4212 175.208 15.6881 175.062 14.7351C174.988 13.7821 174.915 12.9757 174.842 12.2426H179.534V12.1693Z" fill="#003333"/>
<path d="M205.558 13.8553C206.951 15.1749 207.684 16.9343 207.684 19.1336C207.684 19.8666 207.611 20.5997 207.391 21.4061H196.541C196.688 23.6787 198.741 24.7783 201.306 24.7783C203.212 24.7783 205.338 24.0453 206.731 22.9456V26.831C205.265 27.784 203.139 28.3705 200.94 28.3705C195.148 28.3705 191.923 24.6317 191.923 20.0866C191.923 15.9813 194.782 11.876 200.06 11.876C202.333 11.876 204.165 12.5358 205.558 13.8553ZM203.359 18.5471C203.652 16.7877 202.479 15.1749 200.28 15.1749C198.301 15.1749 196.835 16.4944 196.688 18.5471H203.359Z" fill="#003333"/>
<path d="M208.785 28.0776V17.008C208.785 15.6884 208.638 14.0023 208.418 12.2429H213.036V15.9083H213.403C213.989 13.3425 215.749 12.0229 217.875 12.0229C218.608 12.0229 219.341 12.1696 220.074 12.5361V17.2279C219.121 16.6414 218.168 16.3482 217.288 16.3482C215.016 16.3482 213.623 17.961 213.623 20.82V23.2392C213.623 24.9253 213.696 26.3915 213.989 28.1509H208.785V28.0776Z" fill="#003333"/>
<path fill-rule="evenodd" clip-rule="evenodd" d="M27.2709 31.3029C33.4289 27.051 37.021 21.2596 37.021 15.1016V0H0V15.0283C0 21.2596 3.51883 26.9777 9.75008 31.2296L18.5472 35.8481L27.2709 31.3029Z" fill="#34ED72"/>
<path fill-rule="evenodd" clip-rule="evenodd" d="M30.3505 28.8835C32.0366 27.3441 33.4295 25.658 34.4558 23.8985C34.2358 23.6053 34.0159 23.2388 33.796 22.9455C32.9896 21.8459 32.1832 20.9662 31.3768 20.0865L30.937 19.6466L31.0836 19.5C31.8167 18.8402 32.6231 18.1071 33.2095 17.1541C33.796 16.2011 34.1625 14.9549 34.1625 13.3421V13.1954C34.0159 11.6559 33.5761 10.4097 32.9163 9.31006C32.1832 8.13712 31.1569 7.33072 29.9839 6.74425C29.4708 6.52433 28.9576 6.3044 28.3711 6.23109C27.7847 6.08447 27.2715 6.08447 26.685 6.08447C26.0986 6.08447 25.5121 6.15778 24.9989 6.3044C24.4858 6.45102 23.8993 6.59764 23.4594 6.81756C22.2865 7.40403 21.3335 8.21043 20.5271 9.31006C19.8673 10.3364 19.4275 11.5826 19.3541 13.0488C19.2808 14.515 19.5741 15.7612 20.1605 16.7876C20.6004 17.5207 21.1136 18.1804 21.6267 18.7669C19.4275 20.8929 17.4481 20.3797 15.6154 18.8402C16.0552 18.3271 16.5684 17.6673 17.0083 16.8609C17.5947 15.7612 18.0346 14.3684 17.888 12.8289C17.7413 11.3627 17.3015 10.1165 16.5684 9.09014C15.762 7.9905 14.7357 7.18411 13.5627 6.67094C13.0496 6.45102 12.5364 6.3044 11.9499 6.23109C11.4368 6.15778 10.8503 6.08447 10.2638 6.08447C9.67737 6.08447 9.16421 6.15778 8.57774 6.3044C8.06457 6.45102 7.55141 6.59764 7.03825 6.81756C5.86531 7.40403 4.83898 8.21043 4.10589 9.38337C3.51942 10.483 3.07957 11.7293 3.07957 13.1954C3.00626 14.8815 3.44611 16.1278 4.03258 17.2274C4.61906 18.1804 5.42545 18.9868 6.15854 19.6466L5.64538 20.1598C4.69236 21.1861 3.59273 22.2857 2.56641 23.9718C3.66604 25.7313 5.05891 27.4174 6.81832 28.9569C6.81832 28.8835 6.89163 28.7369 6.89163 28.6636C7.33148 27.4174 7.99126 26.2444 8.72435 25.2914C9.45744 24.3384 10.2638 23.6053 11.0702 23.0188L11.8033 23.532C16.0552 26.5377 20.5271 26.4643 24.8523 23.532C25.1455 23.3121 25.4388 23.1654 25.6587 23.0188C25.732 22.9455 25.8786 22.8722 25.9519 22.8722C26.905 23.6053 27.7847 24.4117 28.4444 25.3647C29.2508 26.391 29.8373 27.4907 30.2039 28.6636L30.3505 28.8835ZM26.5384 16.7143C26.0253 16.1278 25.5121 15.468 25.0722 14.8815C24.6324 14.2218 24.3391 13.6353 24.3391 13.1221C24.3391 12.609 24.4858 12.2424 24.7057 11.9492C24.9256 11.5826 25.2922 11.3627 25.6587 11.2161C25.8053 11.1428 26.0253 11.0695 26.1719 11.0695C26.3918 11.0695 26.5384 10.9962 26.7583 10.9962C26.905 10.9962 27.1249 10.9962 27.3448 11.0695C27.5647 11.1428 27.7114 11.1428 27.858 11.2161C28.2245 11.3627 28.5178 11.5826 28.7377 11.8759C28.9576 12.1691 29.0309 12.4623 29.0309 12.9022C29.0309 13.3421 28.9576 13.7819 28.7377 14.2218C28.5178 14.6616 28.2978 15.1015 27.9313 15.5413C27.638 15.8346 27.3448 16.1278 26.9783 16.421C26.905 16.5676 26.7583 16.641 26.5384 16.7143ZM10.5571 16.641C10.3371 16.4943 10.1172 16.3477 9.9706 16.1278C9.60406 15.8346 9.31082 15.5413 9.01759 15.1748C8.72435 14.8815 8.50443 14.5883 8.35781 14.2951C8.21119 14.0751 8.13788 13.9285 8.13788 13.7819C8.06457 13.1954 8.13788 12.7556 8.2845 12.389C8.43112 12.0225 8.72435 11.7293 9.0909 11.5093C9.31082 11.3627 9.53075 11.2894 9.75068 11.2161C10.0439 11.1428 10.2638 11.1428 10.5571 11.1428C10.8503 11.1428 11.0702 11.1428 11.3635 11.2161C11.5834 11.2894 11.8033 11.3627 12.0233 11.5093C12.3165 11.6559 12.6097 11.9492 12.7563 12.3157C12.903 12.6823 12.9763 13.1221 12.903 13.7086C12.903 13.9285 12.7563 14.1485 12.6097 14.3684C12.3898 14.7349 12.0966 15.1015 11.8033 15.468C11.5101 15.8346 11.2169 16.1278 10.9236 16.421L10.5571 16.641Z" fill="#003333"/>
</g>
<defs>
<clipPath id="clip0_332_1597">
<rect width="220" height="35.8481" fill="white"/>
</clipPath>
</defs>
</svg>
